<svg xmlns="http://www.w3.org/2000/svg" xmlns:xlink="http://www.w3.org/1999/xlink" width="100" zoomAndPan="magnify" viewBox="0 0 75 74.999997" height="100" preserveAspectRatio="xMidYMid meet" version="1.0"><defs><g/><clipPath id="05c733ebe1"><path d="M 0 11.351562 L 75 11.351562 L 75 60.75 L 0 60.75 Z M 0 11.351562 " clip-rule="nonzero"/></clipPath><clipPath id="6fe7e0eee9"><path d="M 0 15.820312 L 37.5 11.351562 L 75 15.820312 L 75 56.277344 L 37.5 60.75 L 0 56.277344 Z M 0 15.820312 " clip-rule="nonzero"/></clipPath></defs><g clip-path="url(#05c733ebe1)"><g clip-path="url(#6fe7e0eee9)"><path fill="#ffffff" d="M 0 11.351562 L 75.066406 11.351562 L 75.066406 60.75 L 0 60.75 Z M 0 11.351562 " fill-opacity="1" fill-rule="nonzero"/></g></g><g fill="#000000" fill-opacity="1"><g transform="translate(1.037111, 43.191961)"><g><path d="M 2.890625 0 L 2.890625 -15.515625 L 5.0625 -15.515625 L 5.203125 -13.09375 C 5.765625 -14.039062 6.492188 -14.726562 7.390625 -15.15625 C 8.296875 -15.59375 9.222656 -15.8125 10.171875 -15.8125 C 11.265625 -15.8125 12.296875 -15.5625 13.265625 -15.0625 C 14.242188 -14.570312 14.992188 -13.8125 15.515625 -12.78125 C 15.835938 -13.476562 16.296875 -14.050781 16.890625 -14.5 C 17.492188 -14.945312 18.148438 -15.273438 18.859375 -15.484375 C 19.578125 -15.703125 20.257812 -15.8125 20.90625 -15.8125 C 21.894531 -15.8125 22.835938 -15.601562 23.734375 -15.1875 C 24.640625 -14.78125 25.378906 -14.140625 25.953125 -13.265625 C 26.535156 -12.398438 26.828125 -11.285156 26.828125 -9.921875 L 26.828125 0 L 24.34375 0 L 24.34375 -9.671875 C 24.34375 -11.078125 23.988281 -12.085938 23.28125 -12.703125 C 22.582031 -13.328125 21.71875 -13.640625 20.6875 -13.640625 C 19.882812 -13.640625 19.128906 -13.441406 18.421875 -13.046875 C 17.722656 -12.660156 17.160156 -12.082031 16.734375 -11.3125 C 16.304688 -10.550781 16.09375 -9.613281 16.09375 -8.5 L 16.09375 0 L 13.609375 0 L 13.609375 -9.671875 C 13.609375 -11.078125 13.253906 -12.085938 12.546875 -12.703125 C 11.847656 -13.328125 10.984375 -13.640625 9.953125 -13.640625 C 9.273438 -13.640625 8.578125 -13.457031 7.859375 -13.09375 C 7.148438 -12.738281 6.554688 -12.164062 6.078125 -11.375 C 5.597656 -10.59375 5.359375 -9.5625 5.359375 -8.28125 L 5.359375 0 Z M 2.890625 0 "/></g></g></g><g fill="#000000" fill-opacity="1"><g transform="translate(30.595944, 43.191961)"><g><path d="M 15.9375 -18.359375 L 16.5 -16.15625 C 16.476562 -16.15625 16.445312 -16.15625 16.40625 -16.15625 C 16.363281 -16.15625 16.320312 -16.15625 16.28125 -16.15625 C 15.269531 -16.15625 14.488281 -15.953125 13.9375 -15.546875 C 13.394531 -15.148438 13.125 -14.503906 13.125 -13.609375 L 11.59375 -14.390625 C 11.59375 -15.191406 11.78125 -15.894531 12.15625 -16.5 C 12.53125 -17.101562 13.035156 -17.5625 13.671875 -17.875 C 14.316406 -18.195312 15.019531 -18.359375 15.78125 -18.359375 C 15.800781 -18.359375 15.828125 -18.359375 15.859375 -18.359375 C 15.890625 -18.359375 15.914062 -18.359375 15.9375 -18.359375 Z M 11.234375 -1.984375 C 12.703125 -1.984375 13.847656 -1.644531 14.671875 -0.96875 C 15.492188 -0.300781 15.90625 0.585938 15.90625 1.703125 C 15.90625 2.710938 15.566406 3.585938 14.890625 4.328125 C 14.222656 5.078125 13.328125 5.65625 12.203125 6.0625 C 11.078125 6.46875 9.8125 6.671875 8.40625 6.671875 C 5.96875 6.671875 4.140625 6.253906 2.921875 5.421875 C 1.710938 4.597656 1.109375 3.609375 1.109375 2.453125 C 1.109375 1.617188 1.382812 0.875 1.9375 0.21875 C 2.488281 -0.425781 3.414062 -0.789062 4.71875 -0.875 L 4.5 -0.40625 C 3.789062 -0.59375 3.191406 -0.90625 2.703125 -1.34375 C 2.222656 -1.789062 1.984375 -2.4375 1.984375 -3.28125 C 1.984375 -4.132812 2.296875 -4.863281 2.921875 -5.46875 C 3.554688 -6.082031 4.492188 -6.460938 5.734375 -6.609375 L 7.375 -5.765625 L 7.078125 -5.765625 C 6.054688 -5.660156 5.332031 -5.40625 4.90625 -5 C 4.488281 -4.601562 4.28125 -4.164062 4.28125 -3.6875 C 4.28125 -3.113281 4.488281 -2.6875 4.90625 -2.40625 C 5.332031 -2.125 5.929688 -1.984375 6.703125 -1.984375 Z M 8.375 4.59375 C 9.570312 4.59375 10.554688 4.46875 11.328125 4.21875 C 12.109375 3.96875 12.679688 3.644531 13.046875 3.25 C 13.421875 2.863281 13.609375 2.441406 13.609375 1.984375 C 13.609375 1.421875 13.382812 0.972656 12.9375 0.640625 C 12.5 0.316406 11.703125 0.15625 10.546875 0.15625 L 5.765625 0.15625 C 5.109375 0.15625 4.550781 0.320312 4.09375 0.65625 C 3.632812 1 3.40625 1.472656 3.40625 2.078125 C 3.40625 2.835938 3.84375 3.445312 4.71875 3.90625 C 5.601562 4.363281 6.820312 4.59375 8.375 4.59375 Z M 8.15625 -15.8125 C 9.394531 -15.8125 10.492188 -15.585938 11.453125 -15.140625 C 12.421875 -14.703125 13.171875 -14.085938 13.703125 -13.296875 C 14.242188 -12.515625 14.515625 -11.609375 14.515625 -10.578125 C 14.515625 -9.566406 14.242188 -8.660156 13.703125 -7.859375 C 13.171875 -7.066406 12.421875 -6.445312 11.453125 -6 C 10.492188 -5.550781 9.394531 -5.328125 8.15625 -5.328125 C 6.113281 -5.328125 4.539062 -5.816406 3.4375 -6.796875 C 2.34375 -7.785156 1.796875 -9.046875 1.796875 -10.578125 C 1.796875 -11.609375 2.066406 -12.515625 2.609375 -13.296875 C 3.160156 -14.085938 3.910156 -14.703125 4.859375 -15.140625 C 5.816406 -15.585938 6.914062 -15.8125 8.15625 -15.8125 Z M 8.15625 -13.796875 C 7.082031 -13.796875 6.179688 -13.5 5.453125 -12.90625 C 4.734375 -12.320312 4.375 -11.546875 4.375 -10.578125 C 4.375 -9.628906 4.734375 -8.851562 5.453125 -8.25 C 6.179688 -7.644531 7.082031 -7.34375 8.15625 -7.34375 C 9.226562 -7.34375 10.125 -7.644531 10.84375 -8.25 C 11.570312 -8.851562 11.9375 -9.628906 11.9375 -10.578125 C 11.9375 -11.546875 11.570312 -12.320312 10.84375 -12.90625 C 10.125 -13.5 9.226562 -13.796875 8.15625 -13.796875 Z M 8.15625 -13.796875 "/></g></g></g><g fill="#000000" fill-opacity="1"><g transform="translate(47.096784, 43.191961)"><g><path d="M 4.125 -18.484375 C 3.5625 -18.484375 3.109375 -18.65625 2.765625 -19 C 2.429688 -19.34375 2.265625 -19.789062 2.265625 -20.34375 C 2.265625 -20.90625 2.429688 -21.351562 2.765625 -21.6875 C 3.109375 -22.03125 3.5625 -22.203125 4.125 -22.203125 C 4.6875 -22.203125 5.132812 -22.03125 5.46875 -21.6875 C 5.8125 -21.351562 5.984375 -20.90625 5.984375 -20.34375 C 5.984375 -19.789062 5.8125 -19.34375 5.46875 -19 C 5.132812 -18.65625 4.6875 -18.484375 4.125 -18.484375 Z M 5.359375 -15.515625 L 5.359375 0 L 2.890625 0 L 2.890625 -15.515625 Z M 5.359375 -15.515625 "/></g></g></g><g fill="#000000" fill-opacity="1"><g transform="translate(55.347207, 43.191961)"><g><path d="M 9.3125 -15.8125 C 10.769531 -15.8125 12.0625 -15.488281 13.1875 -14.84375 C 14.320312 -14.207031 15.207031 -13.285156 15.84375 -12.078125 C 16.488281 -10.867188 16.8125 -9.425781 16.8125 -7.75 C 16.8125 -6.070312 16.488281 -4.628906 15.84375 -3.421875 C 15.207031 -2.210938 14.320312 -1.285156 13.1875 -0.640625 C 12.0625 -0.00390625 10.769531 0.3125 9.3125 0.3125 C 7.863281 0.3125 6.566406 -0.00390625 5.421875 -0.640625 C 4.285156 -1.285156 3.394531 -2.210938 2.75 -3.421875 C 2.113281 -4.628906 1.796875 -6.070312 1.796875 -7.75 C 1.796875 -9.425781 2.113281 -10.867188 2.75 -12.078125 C 3.394531 -13.285156 4.285156 -14.207031 5.421875 -14.84375 C 6.566406 -15.488281 7.863281 -15.8125 9.3125 -15.8125 Z M 9.3125 -13.671875 C 8.25 -13.671875 7.34375 -13.429688 6.59375 -12.953125 C 5.851562 -12.484375 5.28125 -11.804688 4.875 -10.921875 C 4.476562 -10.046875 4.28125 -8.988281 4.28125 -7.75 C 4.28125 -6.53125 4.476562 -5.472656 4.875 -4.578125 C 5.28125 -3.691406 5.851562 -3.007812 6.59375 -2.53125 C 7.34375 -2.0625 8.25 -1.828125 9.3125 -1.828125 C 10.363281 -1.828125 11.257812 -2.0625 12 -2.53125 C 12.75 -3.007812 13.320312 -3.691406 13.71875 -4.578125 C 14.125 -5.472656 14.328125 -6.53125 14.328125 -7.75 C 14.328125 -8.988281 14.125 -10.046875 13.71875 -10.921875 C 13.320312 -11.804688 12.75 -12.484375 12 -12.953125 C 11.257812 -13.429688 10.363281 -13.671875 9.3125 -13.671875 Z M 9.3125 -13.671875 "/></g></g></g></svg>